<svg xmlns="http://www.w3.org/2000/svg" viewBox="0 0 800 500" width="100%" height="100%">
  <defs>
    <radialGradient id="bgGlow" cx="50%" cy="50%" r="60%">
      <stop offset="0%" stop-color="#1E293B"/>
      <stop offset="100%" stop-color="#090D16"/>
    </radialGradient>
  </defs>
  <rect width="800" height="500" fill="url(#bgGlow)" rx="16"/>
  <rect x="15" y="15" width="770" height="470" fill="none" stroke="#F59E0B" stroke-width="2" rx="12"/>
  
  <!-- Decorative Grid & Blueprint Elements -->
  <line x1="100" y1="50" x2="700" y2="50" stroke="#334155" stroke-width="1"/>
  <line x1="100" y1="450" x2="700" y2="450" stroke="#334155" stroke-width="1"/>
  <circle cx="400" cy="250" r="140" fill="none" stroke="#D97706" stroke-width="1" stroke-dasharray="4,4"/>
  <circle cx="400" cy="250" r="80" fill="none" stroke="#334155" stroke-width="1"/>
  
  <text x="400" y="60" fill="#F59E0B" font-family="monospace" font-size="18" font-weight="bold" text-anchor="middle" letter-spacing="3">SECTOR 04 // ANOMALY ANALYSIS</text>
  <text x="400" y="90" fill="#94A3B8" font-family="sans-serif" font-size="13" text-anchor="middle">DO NOT TRUST THE LOCATION. SEARCH THE ARTIFACT ITSELF.</text>
  
  <!-- Hidden Anagram Letters subtly embedded across diagram coordinates -->
  <!-- T -->
  <g transform="translate(180, 180)">
    <circle cx="0" cy="0" r="18" fill="#1E293B" stroke="#475569"/>
    <text x="0" y="6" fill="#FBBF24" font-family="monospace" font-size="20" font-weight="bold" text-anchor="middle">T</text>
  </g>
  <!-- R -->
  <g transform="translate(320, 150)">
    <circle cx="0" cy="0" r="18" fill="#1E293B" stroke="#475569"/>
    <text x="0" y="6" fill="#FBBF24" font-family="monospace" font-size="20" font-weight="bold" text-anchor="middle">R</text>
  </g>
  <!-- E -->
  <g transform="translate(480, 150)">
    <circle cx="0" cy="0" r="18" fill="#1E293B" stroke="#475569"/>
    <text x="0" y="6" fill="#FBBF24" font-family="monospace" font-size="20" font-weight="bold" text-anchor="middle">E</text>
  </g>
  <!-- A -->
  <g transform="translate(620, 180)">
    <circle cx="0" cy="0" r="18" fill="#1E293B" stroke="#475569"/>
    <text x="0" y="6" fill="#FBBF24" font-family="monospace" font-size="20" font-weight="bold" text-anchor="middle">A</text>
  </g>
  <!-- S -->
  <g transform="translate(240, 320)">
    <circle cx="0" cy="0" r="18" fill="#1E293B" stroke="#475569"/>
    <text x="0" y="6" fill="#FBBF24" font-family="monospace" font-size="20" font-weight="bold" text-anchor="middle">S</text>
  </g>
  <!-- U -->
  <g transform="translate(400, 360)">
    <circle cx="0" cy="0" r="18" fill="#1E293B" stroke="#475569"/>
    <text x="0" y="6" fill="#FBBF24" font-family="monospace" font-size="20" font-weight="bold" text-anchor="middle">U</text>
  </g>
  <!-- R -->
  <g transform="translate(560, 320)">
    <circle cx="0" cy="0" r="18" fill="#1E293B" stroke="#475569"/>
    <text x="0" y="6" fill="#FBBF24" font-family="monospace" font-size="20" font-weight="bold" text-anchor="middle">R</text>
  </g>
  <!-- E -->
  <g transform="translate(400, 250)">
    <circle cx="0" cy="0" r="18" fill="#1E293B" stroke="#F59E0B" stroke-width="2"/>
    <text x="0" y="6" fill="#FBBF24" font-family="monospace" font-size="20" font-weight="bold" text-anchor="middle">E</text>
  </g>

  <text x="400" y="440" fill="#64748B" font-family="monospace" font-size="12" text-anchor="middle">Letters scattered: [T, R, E, A, S, U, R, E] // Arrange into a single 8-letter master word</text>
</svg>